<?xml version="1.0" encoding="utf-8"?>
<!-- Generator: Adobe Illustrator 19.2.1, SVG Export Plug-In . SVG Version: 6.00 Build 0)  -->
<svg version="1.1" id="Layer_1" xmlns="http://www.w3.org/2000/svg" xmlns:xlink="http://www.w3.org/1999/xlink" x="0px" y="0px"
	 viewBox="0 0 612 792" enable-background="new 0 0 612 792" xml:space="preserve">
<g>
	<text transform="matrix(1 0 0 1 297.0952 271.1758)" fill="#FFFFFF" font-family="'MyriadPro-Regular'" font-size="4.2653px">r = 9.5mm</text>
	<text transform="matrix(1 0 0 1 297.0952 288.9531)" fill="#FFFFFF" font-family="'MyriadPro-Regular'" font-size="4.2653px">r = 7.5mm</text>
	<text transform="matrix(1 0 0 1 297.0952 310.6328)" fill="#FFFFFF" font-family="'MyriadPro-Regular'" font-size="4.2653px">r = 7.5mm</text>
	<text transform="matrix(1 0 0 1 296.0029 327.6055)" fill="#FFFFFF" font-family="'MyriadPro-Regular'" font-size="4.2653px">r = 3.75mm</text>
	<text transform="matrix(1 0 0 1 296.0029 351.5078)" fill="#FFFFFF" font-family="'MyriadPro-Regular'" font-size="4.2653px">r = 3.75mm</text>
	<text transform="matrix(1 0 0 1 298.6304 368.8359)" fill="#FFFFFF" font-family="'MyriadPro-Regular'" font-size="4.2653px">r = 2mm</text>
	<text transform="matrix(1 0 0 1 298.6304 397.4336)" fill="#FFFFFF" font-family="'MyriadPro-Regular'" font-size="4.2653px">r = 2mm</text>
	<path fill="#4190C7" d="M306.1537,384.5023c-6.677,0.005-12.09,5.415-12.09,12.095l0.0025,118.613
		c0.0025,6.675,5.4105,12.09,12.0875,12.09c6.6795,0,12.0875-5.415,12.09-12.09v-118.613
		C318.2437,389.9173,312.8287,384.5073,306.1537,384.5023z"/>
	<path fill="#57BB6E" d="M281.9718,501.3823c-0.0025,6.675-5.408,12.09-12.09,12.09l0,0c-6.677,0-12.0875-5.415-12.09-12.09
		v-20.4445c0.0025-6.6795,5.413-12.0895,12.09-12.0945l0,0c6.682,0,12.09,5.415,12.09,12.0945V501.3823z"/>
	<path fill="#57BB6E" d="M390.7897,480.3958c0,6.675-5.41,12.085-12.0945,12.085l0,0c-6.675,0.005-12.085-5.41-12.085-12.085v-15.61
		c0-6.68,5.41-12.09,12.085-12.09l0,0c6.6845,0,12.0945,5.415,12.0945,12.0945V480.3958z"/>
	<path fill="#46C0C2" d="M354.5107,501.3823c0.005,6.675-5.408,12.09-12.09,12.09l0,0c-6.6745,0-12.085-5.415-12.085-12.09v-69.927
		c-0.0025-6.6795,5.4125-12.0945,12.0875-12.0945l0,0c6.6775,0,12.0925,5.415,12.0875,12.0945V501.3823z"/>
	<path fill="#2E3191" d="M330.3287,390.2543l0.0045,7.7345v-7.8175C330.3333,390.2008,330.3287,390.2248,330.3287,390.2543z"/>
	<path fill="#2E3191" d="M354.5157,397.9838l-0.005-4.658v4.6775C354.5107,397.9983,354.5157,397.9938,354.5157,397.9838z"/>
	<path fill="#46C0C2" d="M344.0418,362.6223l-27.4145-15.83c-5.759-3.325-15.183-3.325-20.942,0l-27.4195,15.83
		c-5.7595,3.3255-10.4715,11.4845-10.4715,18.135v67.163c-0.0025,6.6795,5.408,12.095,12.09,12.095
		c6.6795,0,12.0925-5.4155,12.0945-12.095l-0.002-59.248c0-3.325,2.3555-7.4025,5.234-9.0675l13.706-7.915
		c2.881-1.665,7.5905-1.665,10.4715,0l13.7085,7.915c2.8805,1.665,5.2365,5.7425,5.2365,9.0675v9.3165
		c0,6.6745,5.413,12.09,12.0875,12.09c6.6725,0,12.08-5.4055,12.09-12.0755v-17.246
		C354.5107,374.1068,349.8012,365.9478,344.0418,362.6223z"/>
	<path fill="#F8CE49" d="M345.6703,279.8003l-0.371-0.215l-12.9685-7.4855c-14.3995-8.315-37.957-8.315-52.354,0l-68.552,39.5755
		c-14.397,8.3055-26.177,28.711-26.177,45.337c0,0-0.002,14.043,0,14.1455c0.176,6.1915,5.513,11.162,12.0875,11.162
		c6.5795-0.005,11.919-4.9755,12.0925-11.167c0.0025-0.1025,0-6.2255,0-6.2255c0-13.301,9.424-29.624,20.94-36.2695l54.8435-31.665
		c11.5185-6.6505,30.3665-6.6505,41.8825,0l5.6565,3.2665l1.5775,0.913c1.6015,0.7815,3.391,1.2255,5.288,1.2255
		c6.692,0,12.114-5.4245,12.1165-12.114C351.7297,285.8013,349.2888,281.8948,345.6703,279.8003z"/>
	<path fill="#F6B349" d="M427.0547,357.0123c0-16.626-11.7775-37.0315-26.172-45.337l-26.963-15.5665
		c-1.616-0.801-3.4275-1.2595-5.3565-1.2595c-6.6895,0-12.109,5.4245-12.109,12.114c0,4.3895,2.334,8.218,5.825,10.3465
		l19.6535,11.343c11.5185,6.6505,20.942,22.9735,20.942,36.2695l0.005,52.1925c0,6.6745,5.41,12.0895,12.085,12.0945
		c6.6795-0.005,12.0995-5.415,12.09-12.0945V357.0123z"/>
	<path fill="#F8CE49" d="M209.4303,439.6978c-0.0025,6.6745-5.415,12.085-12.095,12.0895l0,0
		c-6.677,0-12.0875-5.415-12.0875-12.0895v-35.454c0-6.68,5.4105-12.095,12.0875-12.095l0,0c6.68,0,12.0925,5.415,12.0925,12.09
		L209.4303,439.6978z"/>
	<path fill="#57BB6E" d="M369.8427,335.6353l-42.749-24.6825c-11.516-6.6455-30.364-6.6455-41.8825,0l-9.7825,5.654
		c-3.3495,2.1535-5.5715,5.9035-5.5715,10.1805c0,6.6945,5.42,12.1145,12.112,12.1145c1.997,0,3.877-0.493,5.537-1.3475l8.179-4.722
		c5.7615-3.325,15.183-3.325,20.942,0l39.5095,22.8125c5.757,3.3205,10.4685,11.4845,10.4685,18.135
		c0,0-0.0045,34.8485-0.0045,34.878v22.661c0,6.6795,5.41,12.0945,12.0895,12.0995c4.7025-0.005,8.76-2.6855,10.7665-6.6015
		c0.845-1.6455,1.333-3.5155,1.333-5.493v-59.419C390.7897,358.6088,381.3662,342.2858,369.8427,335.6353z"/>
	<path fill="#A8D063" d="M253.0557,331.3723c-2.0145,0-3.9115,0.498-5.5835,1.3725l-5.01,2.8905
		c-11.5185,6.6505-20.9425,22.9735-20.9425,36.2695v108.491c-0.002,6.675,5.4105,12.09,12.09,12.09
		c6.6775,0,12.0875-5.415,12.0875-12.09l0.005-106.616c0-6.6505,4.712-14.8145,10.471-18.1395c0,0,3.24-1.8265,3.667-2.1145
		c3.218-2.1775,5.332-5.8595,5.3295-10.034C265.1722,336.7923,259.7477,331.3723,253.0557,331.3723z"/>
</g>
</svg>
