<?xml version="1.0" encoding="UTF-8" standalone="no"?>
<svg
   xmlns:dc="http://purl.org/dc/elements/1.1/"
   xmlns:cc="http://creativecommons.org/ns#"
   xmlns:rdf="http://www.w3.org/1999/02/22-rdf-syntax-ns#"
   xmlns:svg="http://www.w3.org/2000/svg"
   xmlns="http://www.w3.org/2000/svg"
   xmlns:sodipodi="http://sodipodi.sourceforge.net/DTD/sodipodi-0.dtd"
   xmlns:inkscape="http://www.inkscape.org/namespaces/inkscape"
   version="1.1"
   width="70px"
   height="100px"
   viewBox="0 0 350 500"
   id="svg2"
   sodipodi:version="0.32"
   inkscape:version="0.48.2 r9819"
   sodipodi:docname="Ingranaggi blu.svg"
   inkscape:output_extension="org.inkscape.output.svg.inkscape">
  <metadata
     id="metadata14">
    <rdf:RDF>
      <cc:Work
         rdf:about="">
        <dc:format>image/svg+xml</dc:format>
        <dc:type
           rdf:resource="http://purl.org/dc/dcmitype/StillImage" />
        <dc:title></dc:title>
      </cc:Work>
    </rdf:RDF>
  </metadata>
  <sodipodi:namedview
     inkscape:window-height="706"
     inkscape:window-width="1366"
     inkscape:pageshadow="2"
     inkscape:pageopacity="0.0"
     guidetolerance="10.0"
     gridtolerance="10.0"
     objecttolerance="10.0"
     borderopacity="1.0"
     bordercolor="#666666"
     pagecolor="#ffffff"
     id="base"
     inkscape:zoom="4.95253"
     inkscape:cx="25.530959"
     inkscape:cy="46.01717"
     inkscape:window-x="-8"
     inkscape:window-y="-8"
     inkscape:current-layer="svg2"
     showgrid="false"
     inkscape:window-maximized="1" />
  <defs
     id="defs4">
    <path
       id="cog"
       fill="darkred"
       transform="scale(0.4)"
       d="M 213 0 L 209 39 L 204 78 L 184 87 L 164 96 L 132 70 L 101 45 L 74 72 L 47 99 L 72 130 L 97 162 L 88 181 L 79 200 L 44 205 C 24 208 7 210 4 211 C 1 212 0 223 0 250 L 0 287 L 39 291 C 63 294 79 297 79 299 C 79 301 82 311 87 320 L 95 338 L 70 368 L 45 399 L 72 426 L 99 453 L 129 430 L 159 406 L 177 415 C 187 420 197 425 199 425 C 200 426 203 441 206 459 C 208 477 210 493 211 496 C 212 499 222 500 249 500 L 287 500 L 291 464 C 294 436 296 427 301 426 C 304 425 314 421 324 416 L 341 408 L 370 432 L 400 455 L 426 428 C 446 408 452 400 450 397 C 448 394 437 381 427 368 L 407 343 L 416 325 C 421 315 424 305 424 303 C 424 299 432 297 476 292 L 498 289 L 499 251 L 500 213 L 462 209 C 439 206 424 203 424 201 C 424 199 421 189 416 179 L 407 160 L 431 131 L 455 101 L 428 74 L 401 47 L 371 71 L 341 95 L 320 86 L 299 77 L 294 40 L 289 2 L 251 1 L 213 0 z M 250 170 C 294 170 330 206 330 250 C 330 294 294 330 250 330 C 206 330 170 294 170 250 C 170 206 206 170 250 170 z " />
  </defs>
  <path
     style="fill:#ffffff;fill-opacity:1;fill-rule:evenodd;stroke:none;stroke-width:1px;stroke-linecap:butt;stroke-linejoin:miter;stroke-opacity:1"
     d="M 92.03125,259.375 L 88.28125,293.125 L 70.78125,300.9375 L 43.4375,278.75 L 20.46875,302.1875 L 42.34375,329.84375 L 34.375,346.40625 L 1.25,350.625 C 1.250005,350.62499 -0.35694,377.88268 0,383.59375 C 10.17285,384.12915 33.75,388.4375 33.75,388.4375 L 41.40625,405.46875 L 19.6875,432.03125 L 42.65625,456.25 L 69.21875,434.84375 L 86.25,443.28125 L 91.25,473.90625 L 124.21875,475.625 C 124.21875,475.62499 126.60905,444.50833 130,443.4375 C 133.39095,442.36669 147.65625,435.625 147.65625,435.625 L 172.96875,456.09375 C 172.96875,456.09375 195.02222,434.21734 194.84375,431.71875 C 194.66528,429.22013 175.78125,407.65625 175.78125,407.65625 C 175.78125,407.65625 183.75,391.65068 183.75,389.6875 C 183.75,387.72433 215.3125,384.375 215.3125,384.375 L 216.25,351.71875 C 216.25,351.71875 184.32986,348.83818 183.4375,346.875 C 182.54515,344.91182 178.79304,334.32705 175.9375,328.4375 C 182.00552,321.6556 196.875,302.96875 196.875,302.96875 L 173.59375,280.3125 L 147.34375,300.46875 L 129.375,292.65625 L 125.15625,260.3125 L 92.03125,259.375 z M 108.125,332.96875 C 127.23711,332.96876 142.8125,348.38788 142.8125,367.5 C 142.8125,386.61211 127.23712,402.1875 108.125,402.1875 C 89.012885,402.18752 73.59375,386.61212 73.59375,367.5 C 73.593745,348.38788 89.012885,332.96875 108.125,332.96875 z "
     id="path7031" />
  <path
     style="fill:#ffffff;fill-opacity:1;fill-rule:evenodd;stroke:none;stroke-width:1px;stroke-linecap:butt;stroke-linejoin:miter;stroke-opacity:1;opacity:0.59999999999999998"
     d="M 330.88028,180.40118 L 298.348,190.13645 L 284.31876,177.08018 L 294.0584,143.24078 L 263.50947,131.25571 L 246.59899,162.1979 L 228.23951,161.33413 L 211.41316,132.49079 C 211.41318,132.49078 185.69443,141.66201 180.57686,144.2221 C 184.05883,153.79545 189.30531,177.18173 189.30531,177.18173 L 176.61951,190.88396 L 143.6824,181.27056 L 130.36356,211.87643 L 160.44687,227.96325 L 159.33477,246.93741 L 133.09795,263.50606 L 144.39777,294.52553 C 144.39778,294.52551 173.97478,284.56755 176.28542,287.27051 C 178.59606,289.97351 190.37571,300.4706 190.37571,300.4706 L 181.42451,331.76868 C 181.42451,331.76868 210.17883,343.52117 212.40907,342.38062 C 214.63934,341.24008 227.11041,315.43154 227.11041,315.43154 C 227.11041,315.43154 244.95725,316.51294 246.76436,315.74587 C 248.57146,314.9788 263.98701,342.72355 263.98701,342.72355 L 294.41356,330.82669 C 294.41356,330.82669 284.59293,300.31854 286.05137,298.73003 C 287.50982,297.14155 295.78707,289.5519 300.09269,284.62214 C 308.70645,287.55788 331.71775,293.94378 331.71775,293.94378 L 343.47621,263.66077 L 314.6656,247.37319 L 314.83611,227.78027 L 342.96029,211.2592 L 330.88028,180.40118 z M 269.42521,223.97092 C 276.89291,241.56369 268.7853,261.92566 251.1925,269.39335 C 233.59971,276.86103 213.1767,268.60963 205.70901,251.01684 C 198.24129,233.42404 206.55379,213.14486 224.14659,205.67717 C 241.73939,198.20945 261.95752,206.3781 269.42521,223.97092 z "
     id="path8974" />
  <path
     style="fill:#ffffff;fill-opacity:1;fill-rule:evenodd;stroke:none;stroke-width:1px;stroke-linecap:butt;stroke-linejoin:miter;stroke-opacity:1;opacity:0.29999999999999999"
     d="M 92.03125,-0.625 L 88.28125,33.125 L 70.78125,40.9375 L 43.4375,18.75 L 20.46875,42.1875 L 42.34375,69.84375 L 34.375,86.40625 L 1.25,90.625 C 1.250005,90.62499 -0.35694,117.88268 0,123.59375 C 10.17285,124.12915 33.75,128.4375 33.75,128.4375 L 41.40625,145.46875 L 19.6875,172.03125 L 42.65625,196.25 L 69.21875,174.84375 L 86.25,183.28125 L 91.25,213.90625 L 124.21875,215.625 C 124.21875,215.62499 126.60905,184.50833 130,183.4375 C 133.39095,182.36669 147.65625,175.625 147.65625,175.625 L 172.96875,196.09375 C 172.96875,196.09375 195.02222,174.21734 194.84375,171.71875 C 194.66528,169.22013 175.78125,147.65625 175.78125,147.65625 C 175.78125,147.65625 183.75,131.65068 183.75,129.6875 C 183.75,127.72433 215.3125,124.375 215.3125,124.375 L 216.25,91.71875 C 216.25,91.71875 184.32986,88.83818 183.4375,86.875 C 182.54515,84.91182 178.79304,74.32705 175.9375,68.4375 C 182.00552,61.6556 196.875,42.96875 196.875,42.96875 L 173.59375,20.3125 L 147.34375,40.46875 L 129.375,32.65625 L 125.15625,0.3125 L 92.03125,-0.625 z M 108.125,72.96875 C 127.23711,72.96876 142.8125,88.38788 142.8125,107.5 C 142.8125,126.61211 127.23712,142.1875 108.125,142.1875 C 89.012885,142.18752 73.59375,126.61212 73.59375,107.5 C 73.593745,88.38788 89.012885,72.96875 108.125,72.96875 z "
     id="path8976" />
</svg>
